<?xml version="1.0" encoding="UTF-8"?>
<svg version="1.1" xmlns="http://www.w3.org/2000/svg" width="382" height="373">
<path d="M0 0 C126.06 0 252.12 0 382 0 C382 123.09 382 246.18 382 373 C255.94 373 129.88 373 0 373 C0 249.91 0 126.82 0 0 Z " fill="#001240" transform="translate(0,0)"/>
<path d="M0 0 C27.07661188 17.32501032 45.46304602 47.02423855 57.09375 76.39453125 C57.09375 77.05453125 57.09375 77.71453125 57.09375 78.39453125 C57.83367187 78.66394531 58.57359375 78.93335938 59.3359375 79.2109375 C75.46069324 86.1313355 87.51879512 103.73284097 94.09375 119.39453125 C94.79006373 121.71918952 95.4546059 124.05350931 96.09375 126.39453125 C96.62355469 128.09996094 96.62355469 128.09996094 97.1640625 129.83984375 C101.95972918 146.57139194 101.40814452 162.88129153 96.09375 179.39453125 C95.79339844 180.38710937 95.49304688 181.3796875 95.18359375 182.40234375 C90.3358173 197.13454752 81.39214419 209.58978945 67.65625 217.14453125 C57.67675113 222.01257948 48.02400782 224.43393839 37.0703125 221.2109375 C29.93840316 218.26514886 25.22666185 214.44358292 22.09375 207.39453125 C20.30566398 201.48659838 20.42818645 195.49631088 22.28125 189.64453125 C25.39311217 184.06464046 28.71353947 179.70758609 34.625 177.09375 C44.13139428 174.40127441 52.95324582 176.6859183 62.03662109 179.59741211 C69.80685727 182.04775119 76.71229372 182.70458149 84.34765625 179.35546875 C89.93715929 176.27936641 92.26684721 171.78483651 94.3671875 165.99609375 C97.77815367 153.78263423 92.1993044 140.98519541 86.4765625 130.3125 C81.63737358 121.92908748 74.53913233 115.45345676 67.09375 109.39453125 C67.25456055 110.26456787 67.41537109 111.13460449 67.58105469 112.03100586 C70.07479473 128.39112801 70.0853845 148.01787439 60.76953125 162.234375 C56.20794053 168.11446747 51.34116561 171.64992259 43.9296875 172.94921875 C34.34441928 173.8363429 27.45712929 172.6591969 19.21875 167.64453125 C11.60883845 159.58697784 9.73838045 150.87079715 9.90625 140.08203125 C9.91591797 138.76102417 9.91591797 138.76102417 9.92578125 137.41333008 C10.05835998 125.40148969 10.58024271 113.39503267 11.09375 101.39453125 C-5.34736617 106.24524354 -19.10605854 113.52415456 -32.3984375 124.44140625 C-34.90625 126.39453125 -34.90625 126.39453125 -37.3515625 127.81640625 C-40.49271362 129.75681153 -43.10263882 132.12805218 -45.78125 134.64453125 C-46.31081299 135.13977295 -46.84037598 135.63501465 -47.38598633 136.14526367 C-48.43160884 137.125885 -49.47537911 138.10848592 -50.51708984 139.09326172 C-51.6357514 140.14114679 -52.77734001 141.16452765 -53.92578125 142.1796875 C-61.3432678 148.97181219 -66.21290418 158.16677072 -70.90234375 166.94921875 C-71.42094971 167.91980225 -71.93955566 168.89038574 -72.47387695 169.89038086 C-73.48950348 171.80875114 -74.4925954 173.73382596 -75.48120117 175.66625977 C-79.20381474 182.74423638 -83.23963817 188.24990923 -90.21875 192.33203125 C-95.6689005 193.9024136 -100.72838746 194.59038196 -106.1484375 192.55078125 C-112.27816676 189.12738528 -115.71417464 183.97075732 -117.90625 177.39453125 C-118.90635133 159.37347457 -115.04436345 147.75339852 -103.03515625 134.0625 C-100.54175139 131.29446043 -97.98005609 128.59773879 -95.38525391 125.92480469 C-94.00427038 124.49594949 -92.64760666 123.04370028 -91.29296875 121.58984375 C-66.13346407 95.24681154 -31.32706654 77.69638972 4.09375 70.39453125 C1.78719118 59.43288504 -2.49325938 49.04021328 -10.90625 41.39453125 C-14.1303829 39.7824648 -17.41012227 39.94765778 -20.90625 40.39453125 C-33.72724486 46.53792462 -40.20979283 61.75789099 -44.71875 74.45703125 C-46.77590102 79.22998251 -50.53450753 81.06679025 -54.90625 83.58984375 C-62.87582024 88.38403834 -69.72577977 95.03048588 -76.5703125 101.28125 C-78.6679599 103.17895442 -80.80728782 105.00803055 -82.96875 106.83203125 C-100.54231258 122.27016093 -115.16969296 143.75835979 -123.90625 165.39453125 C-124.23625 165.39453125 -124.56625 165.39453125 -124.90625 165.39453125 C-125.3298511 155.21241588 -124.21394596 146.32461691 -121.90625 136.39453125 C-121.63941406 135.11320313 -121.37257813 133.831875 -121.09765625 132.51171875 C-113.2527533 95.58525138 -96.67142616 62.27620347 -73.90625 32.39453125 C-73.48746582 31.84442383 -73.06868164 31.29431641 -72.63720703 30.72753906 C-56.0477275 9.17860507 -28.54660631 -15.76969784 0 0 Z " fill="#003AB4" transform="translate(206.90625,53.60546875)"/>
<path d="M0 0 C21.6961118 13.88228936 36.43580763 34.93281137 48.09375 57.39453125 C48.50431641 58.16313477 48.91488281 58.93173828 49.33789062 59.72363281 C55.67231774 71.6493141 59.187691 83.03569955 61.09375 96.39453125 C61.38185547 98.31458984 61.38185547 98.31458984 61.67578125 100.2734375 C63.33198047 114.13764991 64.96295121 133.74818041 56.5859375 145.64453125 C52.31717029 150.65083415 47.60373418 154.94497663 40.921875 155.80078125 C34.01366388 155.98178241 28.97968849 156.01806333 23.70703125 151.2421875 C17.6256574 144.27732108 14.73351575 137.53278127 14.89453125 128.29296875 C15.133234 124.82007772 15.73395315 121.54984722 16.55859375 118.171875 C19.4976154 102.9189962 19.47979506 85.52531548 16.09375 70.39453125 C15.70896484 68.63496094 15.70896484 68.63496094 15.31640625 66.83984375 C12.29846898 54.37951907 8.03669561 41.86304989 -0.5234375 32.09375 C-1.90625 30.39453125 -1.90625 30.39453125 -2.90625 27.39453125 C-4.72543817 26.27345639 -4.72543817 26.27345639 -6.90625 25.39453125 C-7.60363281 25.04132813 -8.30101562 24.688125 -9.01953125 24.32421875 C-14.43661513 21.72632772 -18.87793521 20.04108155 -24.87109375 22.0546875 C-43.47044029 30.30123078 -52.88717201 57.64656076 -61.6484375 74.60546875 C-61.96205231 75.21238556 -62.27566711 75.81930237 -62.5987854 76.4446106 C-64.13479714 79.420717 -65.66409106 82.39995632 -67.18603516 85.38330078 C-71.34354641 93.48798374 -75.20890246 100.09424535 -82.09375 106.08203125 C-88.0262955 111.40857294 -93.01473896 117.08953628 -97.90625 123.39453125 C-98.76082587 124.41829387 -99.61904989 125.43901977 -100.48046875 126.45703125 C-110.16059703 138.06517356 -118.25335638 151.35778527 -123.90625 165.39453125 C-124.23625 165.39453125 -124.56625 165.39453125 -124.90625 165.39453125 C-125.3298511 155.21241588 -124.21394596 146.32461691 -121.90625 136.39453125 C-121.63941406 135.11320313 -121.37257813 133.831875 -121.09765625 132.51171875 C-113.2527533 95.58525138 -96.67142616 62.27620347 -73.90625 32.39453125 C-73.48746582 31.84442383 -73.06868164 31.29431641 -72.63720703 30.72753906 C-56.0477275 9.17860507 -28.54660631 -15.76969784 0 0 Z " fill="#0165FC" transform="translate(206.90625,53.60546875)"/>
<path d="M0 0 C0.64730804 2.56213554 1.29289288 5.12468485 1.9375 7.6875 C2.11990234 8.40873047 2.30230469 9.12996094 2.49023438 9.87304688 C4.13685714 16.42959932 5.11485404 22.22361151 5 29 C1.05883782 30.97933923 -2.88319836 32.95130262 -6.859375 34.859375 C-17.79558594 40.14710653 -27.72455327 46.08193572 -37 54 C-37.75667969 54.43183594 -38.51335937 54.86367187 -39.29296875 55.30859375 C-42.48145559 57.3008229 -45.14708978 59.68720588 -47.875 62.25 C-48.40456299 62.7452417 -48.93412598 63.2404834 -49.47973633 63.75073242 C-50.52535884 64.73135375 -51.56912911 65.71395467 -52.61083984 66.69873047 C-53.7295014 67.74661554 -54.87109001 68.7699964 -56.01953125 69.78515625 C-63.4370178 76.57728094 -68.30665418 85.77223947 -72.99609375 94.5546875 C-73.51469971 95.525271 -74.03330566 96.49585449 -74.56762695 97.49584961 C-75.58325348 99.41421989 -76.5863454 101.33929471 -77.57495117 103.27172852 C-81.29756474 110.34970513 -85.33338817 115.85537798 -92.3125 119.9375 C-97.7626505 121.50788235 -102.82213746 122.19585071 -108.2421875 120.15625 C-114.37191676 116.73285403 -117.80792464 111.57622607 -120 105 C-121.00010133 86.97894332 -117.13811345 75.35886727 -105.12890625 61.66796875 C-102.63550139 58.89992918 -100.07380609 56.20320754 -97.47900391 53.53027344 C-96.09802038 52.10141824 -94.74135666 50.64916903 -93.38671875 49.1953125 C-72.5225904 27.3497153 -31.97335166 -1.63965906 0 0 Z " fill="#004FD9" transform="translate(209,126)"/>
<path d="M0 0 C4.86524699 2.64317013 8.86375273 5.85700609 12.93359375 9.59375 C13.43503906 10.05281738 13.93648438 10.51188477 14.453125 10.98486328 C37.84921896 32.66609755 53.39562962 62.65177043 61.30859375 93.34375 C61.48874023 94.03605713 61.66888672 94.72836426 61.85449219 95.44165039 C63.05658989 100.34775772 63.05658989 100.34775772 61.93359375 102.59375 C60.82632898 100.40777457 59.72238633 98.22023572 58.62109375 96.03125 C58.26571533 95.32597168 57.91033691 94.62069336 57.54418945 93.89404297 C55.41341558 89.63796225 53.34495546 85.35977733 51.33984375 81.04296875 C42.89102281 62.88552265 34.18448675 46.80339584 19.93359375 32.59375 C19.01513672 31.58634766 19.01513672 31.58634766 18.078125 30.55859375 C10.15300379 21.96815372 -2.05943779 12.84047363 -14.00390625 11.96875 C-22.79981043 12.35118062 -29.9349269 18.77202946 -36.06640625 24.59375 C-37.96782469 26.72286552 -39.65698244 28.96013923 -41.31640625 31.28125 C-41.78328857 31.92932617 -42.2501709 32.57740234 -42.73120117 33.24511719 C-56.19382734 52.32074441 -66.46241187 73.93431924 -76.6105957 94.89697266 C-80.59777568 102.28291765 -86.06883727 109.41071755 -94.06640625 112.59375 C-97.87890625 113.15625 -97.87890625 113.15625 -101.06640625 112.59375 C-103.00390625 111.03125 -103.00390625 111.03125 -104.06640625 108.59375 C-104.69165549 102.235696 -102.86029523 97.76306472 -100.31640625 92.09375 C-99.91591064 91.18520264 -99.51541504 90.27665527 -99.1027832 89.34057617 C-83.21549786 53.90948008 -61.86862222 17.63536903 -26.06640625 -0.40625 C-25.44121094 -0.74785156 -24.81601563 -1.08945312 -24.171875 -1.44140625 C-15.92765366 -5.59247788 -8.0078153 -3.6723739 0 0 Z " fill="#3B8AFF" transform="translate(203.06640625,54.40625)"/>
<path d="M0 0 C9.0099334 3.96437069 12.49831727 14.70304089 16.01953125 23.23828125 C16.93813282 25.82573666 17.54210942 28.2969685 18 31 C12.76697244 32.83615002 7.57397652 34.3644026 2.1875 35.6875 C-37.43618339 45.91263978 -78.54002335 74.17810256 -100.1484375 109.37890625 C-105.23133537 118.56193271 -105.83660866 131.11485311 -103.16015625 141.1484375 C-100.93823739 146.13092221 -98.09453775 149.65277287 -93.23828125 152.22265625 C-87.66442728 154.15842752 -82.21081562 153.82848043 -76.8125 151.5 C-67.91989244 146.16728909 -63.60948412 137.07575615 -59.0625 128.125 C-53.23522104 116.65522555 -46.57668455 107.17492964 -37.375 98.1875 C-36.84132813 97.65447266 -36.30765625 97.12144531 -35.7578125 96.57226562 C-32.32295509 93.17492487 -28.74972193 90.04594529 -25 87 C-24.34 87.33 -23.68 87.66 -23 88 C-23.928125 88.845625 -24.85625 89.69125 -25.8125 90.5625 C-40.7600844 105.6008592 -49.04926976 123.81872465 -55.32446289 143.74658203 C-59.1048629 155.42549883 -64.51630839 163.50978503 -75.125 169.875 C-81.04412816 172.10636434 -88.39631311 172.08812623 -94.40625 170.2734375 C-96.4158035 169.32276411 -98.17779996 168.2705248 -100 167 C-101.051875 166.278125 -102.10375 165.55625 -103.1875 164.8125 C-112.25850413 155.74149587 -113.06031902 144.94392952 -113.12963867 132.66503906 C-113.12291964 128.44265559 -113.07712419 124.22165976 -113 120 C-112.34 121.32 -111.68 122.64 -111 124 C-110.52691406 123.00742188 -110.05382812 122.01484375 -109.56640625 120.9921875 C-94.7467937 90.34192959 -72.56563412 66.53222196 -45.875 45.8125 C-45.15223877 45.24724609 -44.42947754 44.68199219 -43.68481445 44.09960938 C-43.00249756 43.57818359 -42.32018066 43.05675781 -41.6171875 42.51953125 C-41.01503418 42.05651611 -40.41288086 41.59350098 -39.79248047 41.11645508 C-37.86972131 39.91885529 -36.21298854 39.42730841 -34 39 C-33.86658203 38.00226563 -33.86658203 38.00226563 -33.73046875 36.984375 C-32.77966487 33.09980727 -31.12415269 29.80030533 -29.3125 26.25 C-28.7712146 25.1837439 -28.7712146 25.1837439 -28.21899414 24.09594727 C-14.69190807 -2.16392445 -14.69190807 -2.16392445 0 0 Z " fill="#003AB4" transform="translate(194,93)"/>
<path d="M0 0 C11.50886263 7.61899565 19.35362711 18.05859145 26 30 C26.64195312 31.13695312 27.28390625 32.27390625 27.9453125 33.4453125 C37.50765257 51.32968911 38.9500293 72.10674943 33.12890625 91.4921875 C32.75636719 92.64976562 32.38382812 93.80734375 32 95 C31.54947266 96.48886719 31.54947266 96.48886719 31.08984375 98.0078125 C26.2420673 112.74001627 17.29839419 125.1952582 3.5625 132.75 C-6.41699887 137.61804823 -16.06974218 140.03940714 -27.0234375 136.81640625 C-34.15534684 133.87061761 -38.86708815 130.04905167 -42 123 C-43.78808602 117.09206713 -43.66556355 111.10177963 -41.8125 105.25 C-38.70063783 99.67010921 -35.38021053 95.31305484 -29.46875 92.69921875 C-19.96235572 90.00674316 -11.14050418 92.29138705 -2.05712891 95.20288086 C5.71310727 97.65321994 12.61854372 98.31005024 20.25390625 94.9609375 C25.61773649 92.00903093 28.2325116 87.6464926 30.2734375 82.0546875 C33.75884697 67.40097673 30.40973446 50.78275908 22.953125 38 C18.84208545 31.68544326 14.37458458 26.19640649 8.75 21.1875 C3.78568025 16.41824193 2.53003833 10.53507899 1 4 C0.70416016 2.81664062 0.70416016 2.81664062 0.40234375 1.609375 C0.20318359 0.81273437 0.20318359 0.81273437 0 0 Z " fill="#004FD9" transform="translate(271,138)"/>
<path d="M0 0 C1.30582031 -0.01675781 2.61164063 -0.03351563 3.95703125 -0.05078125 C5.02308594 0.06910156 6.08914062 0.18898437 7.1875 0.3125 C9.1875 3.3125 9.1875 3.3125 9.125 5.75 C7.83526146 9.27528534 6.31218749 10.19616192 3.1875 12.3125 C-0.06474959 13.73478272 -3.40150782 14.88860503 -6.75 16.0625 C-33.78604035 25.98879812 -56.40416366 42.84879016 -69.56640625 68.6640625 C-70.04327881 69.59686035 -70.52015137 70.5296582 -71.01147461 71.49072266 C-71.93996873 73.32799968 -72.85188372 75.17378027 -73.74438477 77.02880859 C-76.5338266 82.6224206 -79.41055436 86.97432585 -84.8125 90.3125 C-88.9624472 91.51295129 -92.55836627 90.95486118 -96.375 89 C-98.90881055 84.26287592 -98.959388 80.54879675 -97.8125 75.3125 C-93.64969872 64.753655 -87.58732594 54.57655818 -79.8125 46.3125 C-79.33361328 45.79413574 -78.85472656 45.27577148 -78.36132812 44.74169922 C-62.59505677 27.80308883 -44.47318744 16.32783452 -23.75 6.375 C-22.96455811 5.99706299 -22.17911621 5.61912598 -21.36987305 5.22973633 C-14.24973169 1.88962076 -7.95632073 0.02379757 0 0 Z " fill="#70AAFF" transform="translate(198.8125,131.6875)"/>
<path d="M0 0 C5.20767605 0.7735251 7.79386764 4.0671443 11 8 C24.22021348 26.21722175 34.01807813 47.17329407 32 70 C30.19121074 77.25460638 26.19624465 81.86917023 20 86 C14.52688164 86.67920372 9.5840363 86.74881716 4.5625 84.375 C-0.92085503 79.29286607 -4.57377468 74.84127622 -5.24584961 67.20751953 C-5.14608198 57.71623962 -4.39441879 48.32381836 -3.5625 38.875 C-3.2813357 35.59667135 -3.00479409 32.31797008 -2.73046875 29.0390625 C-2.63091888 27.85262146 -2.63091888 27.85262146 -2.52935791 26.64221191 C-1.96082767 19.75657854 -1.54423275 12.86911665 -1.29125977 5.96435547 C-1.09686749 1.09686749 -1.09686749 1.09686749 0 0 Z " fill="#3A89FF" transform="translate(231,119)"/>
<path d="M0 0 C0.67561372 2.5395837 1.34065828 5.08118835 2 7.625 C2.19078125 8.33785156 2.3815625 9.05070313 2.578125 9.78515625 C3.65017287 13.95848544 4.21946814 17.65178751 4 22 C2.48986328 22.38478516 2.48986328 22.38478516 0.94921875 22.77734375 C-38.92443985 33.4285594 -64.61785571 59.76905618 -85.109375 94.578125 C-85.45750244 95.16166748 -85.80562988 95.74520996 -86.16430664 96.34643555 C-87.13094124 97.96764161 -88.08728274 99.59497207 -89.04296875 101.22265625 C-91.49566038 104.70342222 -94.18872641 107.09436321 -98 109 C-103.11500049 109.58696727 -103.11500049 109.58696727 -106 109 C-110.34559149 104.93781665 -112.65635911 100.83232441 -113.37109375 94.94140625 C-113.63221773 81.65480377 -109.31635978 70.92775987 -102 60 C-101.39671875 59.04222656 -100.7934375 58.08445313 -100.171875 57.09765625 C-80.75756262 29.40781863 -40.79403327 7.23429518 -8.08374023 0.33544922 C-5.36854264 -0.10165465 -2.74257864 -0.14064506 0 0 Z M-64 29 C-64.79833252 29.58056152 -64.79833252 29.58056152 -65.61279297 30.17285156 C-80.2839796 40.91116323 -93.06379081 53.06376028 -102 69 C-102.928125 70.56234375 -102.928125 70.56234375 -103.875 72.15625 C-107.53345275 78.72791512 -109.45186346 84.458019 -108 92 C-106.78829159 94.87905095 -106.78829159 94.87905095 -104 96 C-100.0994931 96.83582291 -96.87594809 97.12907374 -93.35351562 95.0090332 C-87.73595218 90.72571816 -85.13227402 85.19206283 -82.125 78.9375 C-67.62102206 50.01594499 -45.25403276 32.09769825 -15 21 C-6.95710652 18.47642109 -6.95710652 18.47642109 -1 13 C-1.09227566 9.15782185 -1.09227566 9.15782185 -3 6 C-24.96220014 3.91968334 -46.76532789 16.24586851 -64 29 Z " fill="#0165FD" transform="translate(209,126)"/>
<path d="M0 0 C9.0099334 3.96437069 12.49831727 14.70304089 16.01953125 23.23828125 C16.93813282 25.82573666 17.54210942 28.2969685 18 31 C12.76697244 32.83615002 7.57397652 34.3644026 2.1875 35.6875 C-12.56709133 39.46144545 -26.57988866 45.89000724 -40 53 C-34.30115303 34.91091681 -26.71274928 12.52274256 -10.46875 1.2421875 C-6.96840233 -0.51906338 -3.79178132 -0.63570298 0 0 Z " fill="#001241" transform="translate(194,93)"/>
<path d="M0 0 C1 3 1 3 -0.15234375 5.6015625 C-6.9266133 17.07483303 -14.72137185 27.88389492 -27.80078125 32.2734375 C-36.5711637 34.26524597 -46.9163597 34.39292776 -55 30 C-58.98950809 27.25577189 -62.21921687 24.59826629 -64 20 C-64.65069979 14.92302841 -64.81098619 10.47178974 -62.3125 5.9375 C-56.64926574 1.19262805 -50.16840649 1.25120276 -43.0546875 1.73095703 C-39.33099902 2.21854077 -35.81750532 3.35749663 -32.25 4.5 C-22.24289742 7.70445288 -13.90206534 8.31860149 -4 4 C-1.42790821 2.02347334 -1.42790821 2.02347334 0 0 Z " fill="#0165FD" transform="translate(299,228)"/>
<path d="M0 0 C3.3 0 6.6 0 10 0 C10.33 4.29 10.66 8.58 11 13 C12.81556788 11.21135158 14.62751622 9.41928379 16.4375 7.625 C16.95376953 7.11710937 17.47003906 6.60921875 18.00195312 6.0859375 C20.857133 3.31431064 20.857133 3.31431064 23 0 C37.19 0 51.38 0 66 0 C66 2.64 66 5.28 66 8 C62.37 8 58.74 8 55 8 C55 17.24 55 26.48 55 36 C51.7 36 48.4 36 45 36 C45 27.09 45 18.18 45 9 C41.37 9 37.74 9 34 9 C33.505 6.03 33.505 6.03 33 3 C31.55620057 4.38931643 30.12022488 5.78676578 28.6875 7.1875 C27.88699219 7.96480469 27.08648437 8.74210937 26.26171875 9.54296875 C24.08923692 11.90305695 22.53869987 14.19647888 21 17 C21.35304199 17.43344727 21.70608398 17.86689453 22.06982422 18.31347656 C23.67542985 20.28920043 25.27525047 22.26953204 26.875 24.25 C27.70837891 25.27287109 27.70837891 25.27287109 28.55859375 26.31640625 C29.36103516 27.31220703 29.36103516 27.31220703 30.1796875 28.328125 C30.67194824 28.9355957 31.16420898 29.54306641 31.67138672 30.16894531 C33.02640711 32.03639348 34.02821631 33.9112699 35 36 C30.78205982 36.7707911 27.18852899 37.02086011 23 36 C19.23852755 32.41164971 16.62869538 28.4608164 14 24 C10.7882039 25.63778399 10.7882039 25.63778399 10.48828125 28.3828125 C10.43027344 29.28773438 10.37226563 30.19265625 10.3125 31.125 C10.1578125 33.538125 10.1578125 33.538125 10 36 C6.7 36 3.4 36 0 36 C0 24.12 0 12.24 0 0 Z " fill="#B9D0F3" transform="translate(138,293)"/>
<path d="M0 0 C5.69085163 4.0988097 10.8751878 8.2784863 15 14 C15 14.66 15 15.32 15 16 C11.97750717 15.40449793 10.04034217 14.51554529 7.609375 12.63671875 C6.66771484 11.92418945 6.66771484 11.92418945 5.70703125 11.19726562 C4.41780659 10.20268412 3.12874012 9.20789753 1.83984375 8.21289062 C-6.46454877 1.92962826 -14.37417339 -2.15099221 -25 -1 C-39.85924618 2.70890564 -50.44333031 15.60358637 -58.30554199 28.07009888 C-61.13247003 32.90116138 -63.66518095 37.88025268 -66.1875 42.875 C-66.92227331 44.30158314 -67.65860194 45.72736628 -68.39648438 47.15234375 C-69.86314895 49.98904772 -71.32251005 52.82931978 -72.77636719 55.67260742 C-75.10064223 60.20789669 -77.46206429 64.72302914 -79.83984375 69.23046875 C-80.20675827 69.9294931 -80.57367279 70.62851746 -80.95170593 71.34872437 C-87.99397376 84.66264918 -87.99397376 84.66264918 -93 88 C-96.125 88.1875 -96.125 88.1875 -99 88 C-100 87 -100 87 -100.3203125 83.4765625 C-100.24101414 78.37654513 -98.33182304 74.75412676 -95.875 70.375 C-95.21262329 69.15925293 -95.21262329 69.15925293 -94.53686523 67.91894531 C-85.83624652 52.22769058 -75.9346671 37.2186465 -65 23 C-64.29359375 22.06929687 -63.5871875 21.13859375 -62.859375 20.1796875 C-46.48480856 -0.90095512 -25.54563918 -16.34323349 0 0 Z " fill="#C1DAFF" transform="translate(210,62)"/>
<path d="M0 0 C4.57498557 3.40464042 8.8610727 7.52071811 10.6875 13 C11.22578279 19.35173692 10.36167245 23.72049683 6.6875 29 C2.13181553 33.93012429 -2.50242314 36.06156506 -9.125 36.375 C-14.9969742 36.23519109 -19.5594768 34.61992538 -23.84765625 30.5390625 C-28.10794656 25.64531795 -29.800015 21.77406581 -29.62109375 15.375 C-28.9974028 10.57494814 -27.17877972 6.70934256 -23.59375 3.42578125 C-16.5558733 -1.7780725 -8.38146843 -2.53025462 0 0 Z " fill="#BDD5F7" transform="translate(307.3125,294)"/>
<path d="M0 0 C1.30582031 -0.01675781 2.61164063 -0.03351563 3.95703125 -0.05078125 C5.02308594 0.06910156 6.08914062 0.18898437 7.1875 0.3125 C9.1875 3.3125 9.1875 3.3125 9.125 5.75 C7.83526146 9.27528534 6.31218749 10.19616192 3.1875 12.3125 C-0.06474959 13.73478272 -3.40150782 14.88860503 -6.75 16.0625 C-33.78604035 25.98879812 -56.40416366 42.84879016 -69.56640625 68.6640625 C-70.04327881 69.59686035 -70.52015137 70.5296582 -71.01147461 71.49072266 C-71.93996873 73.32799968 -72.85188372 75.17378027 -73.74438477 77.02880859 C-76.5338266 82.6224206 -79.41055436 86.97432585 -84.8125 90.3125 C-88.9624472 91.51295129 -92.55836627 90.95486118 -96.375 89 C-98.90881055 84.26287592 -98.959388 80.54879675 -97.8125 75.3125 C-93.64969872 64.753655 -87.58732594 54.57655818 -79.8125 46.3125 C-79.33361328 45.79413574 -78.85472656 45.27577148 -78.36132812 44.74169922 C-62.59505677 27.80308883 -44.47318744 16.32783452 -23.75 6.375 C-22.96455811 5.99706299 -22.17911621 5.61912598 -21.36987305 5.22973633 C-14.24973169 1.88962076 -7.95632073 0.02379757 0 0 Z M-63.8125 34.3125 C-64.79734375 35.15296875 -65.7821875 35.9934375 -66.796875 36.859375 C-79.15217338 47.58954438 -86.97962638 59.52280748 -93.8125 74.3125 C-94.3075 75.3025 -94.3075 75.3025 -94.8125 76.3125 C-95.07110135 80.36392119 -95.11691554 81.85587669 -92.8125 85.3125 C-89.79687107 85.94367815 -87.80662892 85.92101778 -85.13134766 84.28344727 C-80.02950514 80.11072904 -77.56301273 75.63301494 -74.875 69.6875 C-67.93049347 55.10734634 -59.7936131 42.55590991 -46.6875 32.8125 C-45.94540283 32.25425537 -45.20330566 31.69601074 -44.4387207 31.12084961 C-31.38859011 21.42410168 -17.54521046 13.57085922 -2.06713867 8.49169922 C1.89165883 7.14175037 1.89165883 7.14175037 4.6484375 4.1328125 C4.91527344 3.23175781 4.91527344 3.23175781 5.1875 2.3125 C3.5634367 2.22913553 1.93801404 2.17227949 0.3125 2.125 C-0.59242188 2.09019531 -1.49734375 2.05539063 -2.4296875 2.01953125 C-24.70869204 3.94900624 -47.54705297 19.9950107 -63.8125 34.3125 Z " fill="#3A89FF" transform="translate(198.8125,131.6875)"/>
<path d="M0 0 C3.50625 -0.061875 7.0125 -0.12375 10.625 -0.1875 C11.71893066 -0.21481201 12.81286133 -0.24212402 13.93994141 -0.27026367 C19.37154355 -0.3165982 23.35680537 -0.16243224 28 3 C30.78945399 6.22989409 31.89519026 8.2663318 32.5 12.5 C31.9077819 16.6455267 30.66641296 18.80030445 28 22 C27.01 22.33 26.02 22.66 25 23 C25.5053125 23.78246094 26.010625 24.56492187 26.53125 25.37109375 C27.1809375 26.38300781 27.830625 27.39492188 28.5 28.4375 C29.1496875 29.44683594 29.799375 30.45617187 30.46875 31.49609375 C32 34 32 34 32 35 C28.2290233 35.47549969 24.74856677 35.71679393 21 35 C19.19871828 33.07374898 18.26153103 31.21682204 17.125 28.84765625 C16.04523408 26.61162672 16.04523408 26.61162672 12.6875 26 C11.800625 26 10.91375 26 10 26 C10 28.97 10 31.94 10 35 C6.7 35 3.4 35 0 35 C0 23.45 0 11.9 0 0 Z " fill="#C0D8FA" transform="translate(323,294)"/>
<path d="M0 0 C1.51400391 0.01740234 1.51400391 0.01740234 3.05859375 0.03515625 C4.07050781 0.04417969 5.08242187 0.05320312 6.125 0.0625 C7.29869141 0.07990234 7.29869141 0.07990234 8.49609375 0.09765625 C10.4759125 4.43733975 12.45128857 8.77900736 14.42260742 13.12255859 C15.09359511 14.59934723 15.76578518 16.07559018 16.43920898 17.55126953 C17.40796845 19.67467588 18.37236119 21.80001876 19.3359375 23.92578125 C19.63700912 24.58322327 19.93808075 25.24066528 20.24827576 25.91802979 C21.63788466 28.99435206 22.67284965 31.80467984 23.49609375 35.09765625 C19.86609375 35.09765625 16.23609375 35.09765625 12.49609375 35.09765625 C11.83609375 32.78765625 11.17609375 30.47765625 10.49609375 28.09765625 C8.05373553 28.10366451 5.62415954 28.15094082 3.18359375 28.22265625 C2.49330078 28.22007812 1.80300781 28.2175 1.09179688 28.21484375 C-1.21091317 28.24249501 -1.21091317 28.24249501 -4.50390625 29.09765625 C-6.56849145 32.01484193 -6.56849145 32.01484193 -7.50390625 35.09765625 C-10.80390625 35.09765625 -14.10390625 35.09765625 -17.50390625 35.09765625 C-15.14293667 27.51685596 -12.10490233 20.34774639 -8.87890625 13.09765625 C-8.37617187 11.95425781 -7.8734375 10.81085938 -7.35546875 9.6328125 C-3.14890501 0.12281221 -3.14890501 0.12281221 0 0 Z " fill="#C0D8FA" transform="translate(80.50390625,293.90234375)"/>
<path d="M0 0 C3.3 0 6.6 0 10 0 C10.01981934 0.7113208 10.03963867 1.4226416 10.06005859 2.15551758 C10.15524867 5.37488816 10.26495229 8.5936045 10.375 11.8125 C10.4059375 12.93205078 10.436875 14.05160156 10.46875 15.20507812 C10.50742188 16.27822266 10.54609375 17.35136719 10.5859375 18.45703125 C10.6173584 19.44678955 10.6487793 20.43654785 10.68115234 21.45629883 C10.83773433 24.24075094 10.83773433 24.24075094 13 27 C16.5 27.5 16.5 27.5 20 27 C22.22535794 23.66196309 22.28978404 22.37180289 22.4140625 18.45703125 C22.45273438 17.38388672 22.49140625 16.31074219 22.53125 15.20507812 C22.57765625 13.52575195 22.57765625 13.52575195 22.625 11.8125 C22.66367188 10.68134766 22.70234375 9.55019531 22.7421875 8.38476562 C22.83652533 5.5900075 22.92211652 2.79525722 23 0 C26.3 0 29.6 0 33 0 C33.11679952 4.18726294 33.18745327 8.37410301 33.25 12.5625 C33.30027344 14.33463867 33.30027344 14.33463867 33.3515625 16.14257812 C33.42825216 22.98713025 33.29698865 27.53386603 29 33 C24.6163573 36.81893763 19.13511394 37.69775915 13.46484375 37.453125 C8.35023932 36.51288076 4.44240965 33.99834299 1.41259766 29.80078125 C-0.26422213 26.47612233 -0.34568514 24.31318831 -0.29296875 20.60546875 C-0.28330078 19.40341797 -0.27363281 18.20136719 -0.26367188 16.96289062 C-0.23853516 15.71701172 -0.21339844 14.47113281 -0.1875 13.1875 C-0.17396484 11.92228516 -0.16042969 10.65707031 -0.14648438 9.35351562 C-0.11118318 6.23524357 -0.06186819 3.11783958 0 0 Z " fill="#BCD4F7" transform="translate(208,293)"/>
<path d="M0 0 C2.3046875 -0.23828125 2.3046875 -0.23828125 5 0 C12.18218932 6.70227344 14.09903836 17.25725539 14.4375 26.625 C14.23375233 33.49537127 13.0098454 38.7903861 8.234375 43.8828125 C4.89402678 46.71027261 2.1143244 48.36683925 -2.3125 48.5625 C-6 48 -6 48 -8 46.9375 C-9.67819561 43.68599601 -9.53389092 41.61859402 -9 38 C-7.64053692 35.95872669 -6.1758341 34.1797633 -4.5078125 32.3828125 C-0.37428932 25.85056084 -0.62534625 17.43224087 -0.375 9.9375 C-0.31699219 8.49600586 -0.31699219 8.49600586 -0.2578125 7.02539062 C-0.16461374 4.68377186 -0.07880815 2.34213963 0 0 Z " fill="#7EB2FF" transform="translate(246,153)"/>
<path d="M0 0 C1 3 1 3 -0.1171875 5.78515625 C-9.12742761 22.58424837 -20.83606895 32.94535632 -39 39 C-49.92275857 39.75876998 -58.53979532 38.31108239 -67 31 C-72.02280923 24.61109704 -72.52966827 17.8341632 -72 10 C-71 6.375 -71 6.375 -70 4 C-69.67 4 -69.34 4 -69 4 C-68.90203125 4.72445312 -68.8040625 5.44890625 -68.703125 6.1953125 C-67.59233855 13.37712147 -66.07777776 18.00771607 -60.75 23.1875 C-57.33561102 25.43789274 -53.88991381 26.78585195 -50 28 C-49.10474609 28.28810547 -49.10474609 28.28810547 -48.19140625 28.58203125 C-38.1183967 30.5032648 -27.60334597 26.91803188 -19.0625 21.6875 C-10.47093546 15.73755853 -5.32720305 8.95423492 0 0 Z " fill="#0039B2" transform="translate(300,237)"/>
<path d="M0 0 C1.51180049 3.02360098 0.53023495 4.80685121 -0.4375 8 C-3.22749591 15.01726244 -6.93681628 17.50504762 -13.36474609 21.13012695 C-39.0607189 35.63127278 -64.90956852 62.40632665 -74 91 C-74.45541813 92.98727913 -74.86048534 94.98760207 -75.1875 97 C-75.34605469 97.94875 -75.50460938 98.8975 -75.66796875 99.875 C-75.77753906 100.57625 -75.88710937 101.2775 -76 102 C-76.33 102 -76.66 102 -77 102 C-77 95.07 -77 88.14 -77 81 C-76.34 82.32 -75.68 83.64 -75 85 C-74.52691406 84.00742188 -74.05382812 83.01484375 -73.56640625 81.9921875 C-58.60251912 51.04353764 -31.56365354 15.78182677 0 0 Z " fill="#0031A6" transform="translate(158,132)"/>
<path d="M0 0 C2.12792744 0.77064039 4.23270853 1.60757114 6.3125 2.5 C14.29761352 5.81529031 22.03185401 6.69103561 30.328125 3.8671875 C32.96460817 2.68415018 35.49208428 1.4330947 38 0 C35.16805663 6.64246403 28.82205342 11.43346276 22.375 14.375 C20.92580509 14.94066157 19.46779044 15.48450983 18 16 C16.865625 16.4125 15.73125 16.825 14.5625 17.25 C5.9410223 19.06504794 -2.18051544 18.44767783 -9.859375 13.8984375 C-12.62953934 11.85379239 -13.93815353 10.16835982 -15.125 6.9375 C-15 4 -15 4 -13.75 1.625 C-9.26343043 -1.02615474 -5.07340855 -0.76927623 0 0 Z " fill="#3989FF" transform="translate(256,234)"/>
<path d="M0 0 C10.56 0 21.12 0 32 0 C32 2.64 32 5.28 32 8 C28.37 8 24.74 8 21 8 C21 17.24 21 26.48 21 36 C17.7 36 14.4 36 11 36 C11 27.09 11 18.18 11 9 C7.37 9 3.74 9 0 9 C0 6.03 0 3.06 0 0 Z " fill="#B9D0F3" transform="translate(244,293)"/>
<path d="M0 0 C10.56 0 21.12 0 32 0 C32 2.64 32 5.28 32 8 C28.37 8 24.74 8 21 8 C21 17.24 21 26.48 21 36 C17.7 36 14.4 36 11 36 C11 27.09 11 18.18 11 9 C7.37 9 3.74 9 0 9 C0 6.03 0 3.06 0 0 Z " fill="#B9D0F3" transform="translate(31,293)"/>
<path d="M0 0 C10.23 0 20.46 0 31 0 C31 2.31 31 4.62 31 7 C27.37 7 23.74 7 20 7 C20 16.24 20 25.48 20 35 C16.7 35 13.4 35 10 35 C10 25.76 10 16.52 10 7 C6.7 7 3.4 7 0 7 C0 4.69 0 2.38 0 0 Z " fill="#C1D9FB" transform="translate(173,294)"/>
<path d="M0 0 C3.3 0 6.6 0 10 0 C10 9.24 10 18.48 10 28 C15.61 28 21.22 28 27 28 C27 30.64 27 33.28 27 36 C18.09 36 9.18 36 0 36 C0 24.12 0 12.24 0 0 Z " fill="#C0D8FA" transform="translate(107,293)"/>
<path d="M0 0 C11.50886263 7.61899565 19.35362711 18.05859145 26 30 C26.64195312 31.13695312 27.28390625 32.27390625 27.9453125 33.4453125 C34.64909377 45.98334693 38.67592074 60.665784 35.3203125 74.87890625 C34.63905644 76.95187113 33.83430644 78.98375945 33 81 C32.67 81 32.34 81 32 81 C31.96261719 79.87464844 31.92523438 78.74929687 31.88671875 77.58984375 C31.0732898 57.08559195 27.26620483 40.65206473 13 25 C11.587836 23.72416512 10.17126403 22.45318968 8.75 21.1875 C3.78568025 16.41824193 2.53003833 10.53507899 1 4 C0.80277344 3.21109375 0.60554688 2.4221875 0.40234375 1.609375 C0.26957031 1.07828125 0.13679688 0.5471875 0 0 Z " fill="#0365F9" transform="translate(271,138)"/>
<path d="M0 0 C13.83414646 5.03717179 25.04965139 18.48577128 32 31 C32.77730469 32.39025391 32.77730469 32.39025391 33.5703125 33.80859375 C36.19158527 38.74317556 36.19158527 38.74317556 37 41 C36.67 41.99 36.34 42.98 36 44 C35.53851563 43.06800781 35.07703125 42.13601562 34.6015625 41.17578125 C27.76493513 27.68421906 19.7490514 16.67421892 8 7 C10.37159082 17.44286124 12.965136 23.8893054 21.14453125 31.21875 C31.95300118 41.74628843 38.36059457 56.33977256 39.1171875 71.3203125 C39.1235048 72.88068457 39.07085343 74.44122462 39 76 C38.67 76 38.34 76 38 76 C37.814375 74.9790625 37.814375 74.9790625 37.625 73.9375 C34.22514151 57.95816512 26.28398134 43.41314288 12.8515625 33.73046875 C9.10163209 30.13978196 8.29321417 26.9167268 7 22 C6.48076665 20.2708674 5.95723702 18.5430198 5.4296875 16.81640625 C4.64140772 14.16041834 3.85751113 11.5031658 3.07421875 8.84570312 C2.82027344 7.99041016 2.56632812 7.13511719 2.3046875 6.25390625 C2.07765137 5.48377197 1.85061523 4.7136377 1.61669922 3.92016602 C1.03636141 1.94581526 1.03636141 1.94581526 0 0 Z " fill="#003AB4" transform="translate(264,132)"/>
<path d="M0 0 C2.69990662 1.79993774 4.5418865 3.083773 6 6 C6.65157772 10.73790088 6.65620107 13.99519212 4 18.0625 C0.67894457 20.2073483 -1.17882669 20.76296768 -5.0625 20.46875 C-8.71300264 19.58556388 -10.00305216 18.120231 -12 15 C-12.75186429 11.49895254 -12.80768635 8.49424591 -12 5 C-9.13565257 0.60083159 -5.11249011 -0.97898747 0 0 Z " fill="#041643" transform="translate(301,301)"/>
<path d="M0 0 C13.83414646 5.03717179 25.04965139 18.48577128 32 31 C32.77730469 32.39025391 32.77730469 32.39025391 33.5703125 33.80859375 C36.19158527 38.74317556 36.19158527 38.74317556 37 41 C36.67 41.99 36.34 42.98 36 44 C35.53851563 43.06800781 35.07703125 42.13601562 34.6015625 41.17578125 C27.76493513 27.68421906 19.7490514 16.67421892 8 7 C8.27714844 7.78761719 8.55429687 8.57523438 8.83984375 9.38671875 C11.4771305 17.31734972 12.72680794 24.65398264 13 33 C9.66407072 30.06388085 8.3123018 27.80663214 7.1484375 23.53515625 C6.85453125 22.48779297 6.560625 21.44042969 6.2578125 20.36132812 C5.82082031 18.7284082 5.82082031 18.7284082 5.375 17.0625 C4.78072639 14.9069774 4.18444208 12.75200791 3.5859375 10.59765625 C3.3286084 9.64383057 3.0712793 8.69000488 2.80615234 7.70727539 C2.0178411 5.0599152 1.06687354 2.54632934 0 0 Z " fill="#0132A6" transform="translate(264,132)"/>
<path d="M0 0 C13.99837146 9.26707831 26.06125519 24.83438173 31 41 C30.54467773 43.14624023 30.54467773 43.14624023 30 45 C29.49210937 43.94941406 28.98421875 42.89882812 28.4609375 41.81640625 C20.07353283 24.04547886 20.07353283 24.04547886 5.75 11.125 C1.86291132 8.12134057 1.13341805 4.65297935 0 0 Z " fill="#B2D1FE" transform="translate(271,138)"/>
<path d="M0 0 C2.89951766 0.32216863 4.72557388 0.80628745 7.125 2.5 C11.52336998 4.79480173 16.1036861 4.75132556 21 5 C20 8 20 8 18.0625 9.1875 C12.60847378 10.63448655 7.26588882 10.83236732 1.9375 8.875 C-0.63943422 6.38119269 -0.84675503 4.52463435 -1 1 C-0.67 0.67 -0.34 0.34 0 0 Z " fill="#7BB1FF" transform="translate(248,238)"/>
<path d="M0 0 C2.82271711 2.82271711 3.20279506 6.09727381 4.0625 9.875 C4.2387793 10.63353271 4.41505859 11.39206543 4.59667969 12.17358398 C5.99050349 18.41878412 6.75341044 24.60100104 7 31 C5.35 31.33 3.7 31.66 2 32 C2.04125 30.74316406 2.0825 29.48632812 2.125 28.19140625 C2.125 22.61806581 1.12101178 17.3797092 0 11.9375 C-0.19078125 10.97650391 -0.3815625 10.01550781 -0.578125 9.02539062 C-1.04448055 6.681954 -1.51854466 4.34037235 -2 2 C-2.99 1.67 -3.98 1.34 -5 1 C-2.625 0.375 -2.625 0.375 0 0 Z " fill="#0030A3" transform="translate(211,124)"/>
<path d="M0 0 C7.71484375 -0.09765625 7.71484375 -0.09765625 10 0 C11 1 11 1 11.25 4.4375 C11.1675 5.613125 11.085 6.78875 11 8 C7.91111478 10.05925681 7.29064073 10.2390374 3.8125 10.125 C1.9253125 10.063125 1.9253125 10.063125 0 10 C0 6.7 0 3.4 0 0 Z " fill="#061845" transform="translate(333,302)"/>
<path d="M0 0 C5.16620363 1.49137577 8.20560974 4.70631885 11.875 8.4375 C12.49560303 9.06495117 13.11620605 9.69240234 13.75561523 10.33886719 C18.68996584 15.44636428 22.63094243 20.73111294 26 27 C26.51433594 27.92296875 27.02867187 28.8459375 27.55859375 29.796875 C30.18225508 34.71712877 30.18225508 34.71712877 31 37 C30.67 37.99 30.34 38.98 30 40 C29.53851563 39.06800781 29.07703125 38.13601562 28.6015625 37.17578125 C21.76188203 23.67472272 13.70725577 12.97723261 2.2734375 3.046875 C1.52320313 2.37140625 0.77296875 1.6959375 0 1 C0 0.67 0 0.34 0 0 Z " fill="#0C6AF8" transform="translate(270,136)"/>
<path d="M0 0 C2.22825644 2.22825644 2.69239369 3.65761628 3.625 6.625 C3.88539062 7.44226563 4.14578125 8.25953125 4.4140625 9.1015625 C4.60742188 9.72804688 4.80078125 10.35453125 5 11 C2.03 11 -0.94 11 -4 11 C-3.5247412 9.35303396 -3.04468109 7.70745272 -2.5625 6.0625 C-2.29566406 5.14597656 -2.02882813 4.22945313 -1.75390625 3.28515625 C-1 1 -1 1 0 0 Z " fill="#192B58" transform="translate(83,304)"/>
<path d="M0 0 C2.97826756 3.51682139 5.23589872 7.01302029 7.3125 11.125 C7.84488281 12.15882813 8.37726563 13.19265625 8.92578125 14.2578125 C10 17 10 17 9 20 C7.67933245 17.60835832 6.36838208 15.21219784 5.0625 12.8125 C4.68931641 12.13896484 4.31613281 11.46542969 3.93164062 10.77148438 C1.99445132 7.19379242 0.50172044 4.1013655 0 0 Z " fill="#1068ED" transform="translate(291,156)"/>
<path d="M0 0 C0.33 0 0.66 0 1 0 C1.2396943 5.63281599 0.38529821 10.54538831 -1 16 C-2.58158962 12.99112219 -3.43945339 10.36327963 -4 7 C-3.34 7 -2.68 7 -2 7 C-1.34 4.69 -0.68 2.38 0 0 Z " fill="#004AC8" transform="translate(306,210)"/>
<path d="M0 0 C0.66 0.66 1.32 1.32 2 2 C0.75 5.4375 0.75 5.4375 -1 9 C-3.1875 9.9375 -3.1875 9.9375 -5 10 C-3.66511872 6.40608886 -2.03977277 3.24509304 0 0 Z M-8 11 C-7.34 11.33 -6.68 11.66 -6 12 C-6.99 12 -7.98 12 -9 12 C-8.67 11.67 -8.34 11.34 -8 11 Z " fill="#005CE9" transform="translate(302,220)"/>
<path d="M0 0 C3.2605096 3.2605096 3.05467405 6.89083745 3.0625 11.3125 C3.041875 12.529375 3.02125 13.74625 3 15 C0.85181036 11.3173892 -0.40314548 7.21258191 -1 3 C-0.67 2.01 -0.34 1.02 0 0 Z " fill="#478CF5" transform="translate(302,180)"/>
</svg>
